<svg width="16" height="22" viewBox="0 0 16 22" fill="none" xmlns="http://www.w3.org/2000/svg">
<path d="M6 4.33331H12V5.66665H6V4.33331Z" fill="#1BB89A"/>
<path d="M6 7H12V8.33333H6V7Z" fill="#1BB89A"/>
<path d="M6 9.66669H12V11H6V9.66669Z" fill="#1BB89A"/>
<path d="M6 12.3333H12V13.6666H6V12.3333Z" fill="#1BB89A"/>
<path d="M6 15H12V16.3333H6V15Z" fill="#1BB89A"/>
<path d="M3.33331 4.33331H4.66665V5.66665H3.33331V4.33331Z" fill="#1BB89A"/>
<path d="M3.33331 7H4.66665V8.33333H3.33331V7Z" fill="#1BB89A"/>
<path d="M3.33331 9.66669H4.66665V11H3.33331V9.66669Z" fill="#1BB89A"/>
<path d="M3.33331 12.3333H4.66665V13.6666H3.33331V12.3333Z" fill="#1BB89A"/>
<path d="M3.33331 15H4.66665V16.3333H3.33331V15Z" fill="#1BB89A"/>
<path d="M14.6667 0.333313H1.33333C0.979711 0.333313 0.640573 0.473789 0.390524 0.723837C0.140476 0.973886 0 1.31302 0 1.66665V20.3333C0 20.6869 0.140476 21.0261 0.390524 21.2761C0.640573 21.5262 0.979711 21.6666 1.33333 21.6666H14.6667C15.0203 21.6666 15.3594 21.5262 15.6095 21.2761C15.8595 21.0261 16 20.6869 16 20.3333V1.66665C16 1.31302 15.8595 0.973886 15.6095 0.723837C15.3594 0.473789 15.0203 0.333313 14.6667 0.333313ZM14.6667 20.3333H1.33333V1.66665H14.6667V20.3333Z" fill="#1BB89A"/>
</svg>
