<svg width="16" height="22" viewBox="0 0 16 22" fill="none" xmlns="http://www.w3.org/2000/svg">
<path d="M6 4.33337H12V5.66671H6V4.33337Z" fill="#C1C1C1"/>
<path d="M6 7H12V8.33333H6V7Z" fill="#C1C1C1"/>
<path d="M6 9.66663H12V11H6V9.66663Z" fill="#C1C1C1"/>
<path d="M6 12.3334H12V13.6667H6V12.3334Z" fill="#C1C1C1"/>
<path d="M6 15H12V16.3333H6V15Z" fill="#C1C1C1"/>
<path d="M3.33331 4.33337H4.66665V5.66671H3.33331V4.33337Z" fill="#C1C1C1"/>
<path d="M3.33331 7H4.66665V8.33333H3.33331V7Z" fill="#C1C1C1"/>
<path d="M3.33331 9.66663H4.66665V11H3.33331V9.66663Z" fill="#C1C1C1"/>
<path d="M3.33331 12.3334H4.66665V13.6667H3.33331V12.3334Z" fill="#C1C1C1"/>
<path d="M3.33331 15H4.66665V16.3333H3.33331V15Z" fill="#C1C1C1"/>
<path d="M14.6667 0.333374H1.33333C0.979711 0.333374 0.640573 0.47385 0.390524 0.723898C0.140476 0.973947 0 1.31309 0 1.66671V20.3334C0 20.687 0.140476 21.0261 0.390524 21.2762C0.640573 21.5262 0.979711 21.6667 1.33333 21.6667H14.6667C15.0203 21.6667 15.3594 21.5262 15.6095 21.2762C15.8595 21.0261 16 20.687 16 20.3334V1.66671C16 1.31309 15.8595 0.973947 15.6095 0.723898C15.3594 0.47385 15.0203 0.333374 14.6667 0.333374ZM14.6667 20.3334H1.33333V1.66671H14.6667V20.3334Z" fill="#C1C1C1"/>
</svg>



