<svg width="24" height="24" viewBox="0 0 24 24" fill="none" xmlns="http://www.w3.org/2000/svg">
<path d="M13.4063 17.9062C13.1673 17.9062 12.9283 17.8154 12.7454 17.6338L9.07983 13.9918C8.54462 13.4601 8.25 12.7527 8.25 12C8.25 11.2473 8.54462 10.5399 9.07983 10.0084L12.7454 6.36621C13.1127 6.00128 13.7064 6.00311 14.0713 6.37042C14.4362 6.73773 14.4342 7.33136 14.0671 7.69629L10.4013 11.3384C10.2231 11.5153 10.125 11.7504 10.125 12C10.125 12.2496 10.2231 12.4847 10.4013 12.6617L14.0671 16.3037C14.4344 16.6686 14.4362 17.2623 14.0713 17.6296C13.888 17.814 13.6472 17.9062 13.4063 17.9062ZM18.2091 22.2706C18.652 22.0023 18.7936 21.4259 18.5253 20.9832C18.2569 20.5402 17.6805 20.3987 17.2377 20.6669C15.663 21.6207 13.8517 22.125 12 22.125C6.41711 22.125 1.875 17.5829 1.875 12C1.875 6.41711 6.41711 1.875 12 1.875C17.5829 1.875 22.125 6.41711 22.125 12C22.125 13.9964 21.5314 15.9395 20.4082 17.6197C20.1204 18.05 20.2361 18.6323 20.6664 18.9201C21.0969 19.2079 21.6791 19.0922 21.9668 18.6617C23.2971 16.6723 24 14.3687 24 12C24 8.79474 22.7518 5.78119 20.4853 3.51471C18.2188 1.24823 15.2053 0 12 0C8.79474 0 5.78119 1.24823 3.51471 3.51471C1.24823 5.78119 0 8.79474 0 12C0 15.2053 1.24823 18.2188 3.51471 20.4853C5.78119 22.7518 8.79474 24 12 24C14.1943 24 16.3414 23.402 18.2091 22.2706Z" fill="#1BB89A"/>
</svg>
