<svg width="24" height="24" viewBox="0 0 24 24" fill="none" xmlns="http://www.w3.org/2000/svg">
<path d="M9.15 16.25L12 13.4L14.85 16.25L16.25 14.85L13.4 12L16.25 9.15L14.85 7.75L12 10.6L9.15 7.75L7.75 9.15L10.6 12L7.75 14.85L9.15 16.25ZM3 21V3H21V13.35C20.6833 13.2333 20.3583 13.146 20.025 13.088C19.6917 13.03 19.35 13.0007 19 13V5H5V19H13C13 19.35 13.0293 19.6917 13.088 20.025C13.1467 20.3583 13.234 20.6833 13.35 21H3ZM19 23L17.6 21.6L19.175 20H15V18H19.175L17.6 16.4L19 15L23 19L19 23Z" fill="#FF0000"/>
</svg>
