<svg width="23" height="26" viewBox="0 0 23 26" fill="none" xmlns="http://www.w3.org/2000/svg">
<path d="M2.25 6.75H19.4875C19.8368 6.75001 20.1822 6.82321 20.5014 6.96488C20.8207 7.10655 21.1067 7.31354 21.3411 7.57252C21.5754 7.83149 21.7529 8.1367 21.8621 8.46847C21.9713 8.80024 22.0098 9.15121 21.975 9.49875L21.225 16.9988C21.1633 17.6156 20.8746 18.1876 20.415 18.6036C19.9553 19.0196 19.3575 19.25 18.7375 19.25H6.8C6.22184 19.2502 5.66147 19.0501 5.21431 18.6836C4.76714 18.3171 4.46082 17.8069 4.3475 17.24L2.25 6.75Z" stroke="white" stroke-width="2" stroke-linejoin="round"/>
<path d="M4.75 6.75L3.7375 2.69625C3.66979 2.42594 3.51369 2.18601 3.29401 2.01457C3.07433 1.84313 2.80366 1.75001 2.525 1.75H1M8.5 24.25H11M18.5 24.25H21" stroke="white" stroke-width="2" stroke-linecap="round" stroke-linejoin="round"/>
</svg>
