<svg width="18" height="29" viewBox="0 0 18 29" fill="none" xmlns="http://www.w3.org/2000/svg">
<path d="M2 1.5C2 1.23478 1.89464 0.98043 1.70711 0.792893C1.51957 0.605357 1.26522 0.5 1 0.5C0.734784 0.5 0.48043 0.605357 0.292893 0.792893C0.105357 0.98043 1.04228e-07 1.23478 1.04228e-07 1.5V7.5C-0.000235151 8.65265 0.397783 9.76999 1.12669 10.6629C1.8556 11.5558 2.87064 12.1695 4 12.4V27.5C4 27.7652 4.10536 28.0196 4.29289 28.2071C4.48043 28.3946 4.73478 28.5 5 28.5C5.26522 28.5 5.51957 28.3946 5.70711 28.2071C5.89464 28.0196 6 27.7652 6 27.5V12.4C7.12936 12.1695 8.1444 11.5558 8.87331 10.6629C9.60222 9.76999 10.0002 8.65265 10 7.5V1.5C10 1.23478 9.89464 0.98043 9.70711 0.792893C9.51957 0.605357 9.26522 0.5 9 0.5C8.73478 0.5 8.48043 0.605357 8.29289 0.792893C8.10536 0.98043 8 1.23478 8 1.5V7.5C8.00033 8.12065 7.80814 8.72613 7.44994 9.23298C7.09174 9.73984 6.58516 10.1231 6 10.33V1.5C6 1.23478 5.89464 0.98043 5.70711 0.792893C5.51957 0.605357 5.26522 0.5 5 0.5C4.73478 0.5 4.48043 0.605357 4.29289 0.792893C4.10536 0.98043 4 1.23478 4 1.5V10.33C3.41484 10.1231 2.90826 9.73984 2.55006 9.23298C2.19186 8.72613 1.99967 8.12065 2 7.5V1.5ZM16 27.5V14.5H13C12.7348 14.5 12.4804 14.3946 12.2929 14.2071C12.1054 14.0196 12 13.7652 12 13.5V5.5C12 4.174 12.652 2.934 13.542 2.042C14.434 1.152 15.674 0.5 17 0.5C17.2652 0.5 17.5196 0.605357 17.7071 0.792893C17.8946 0.98043 18 1.23478 18 1.5V27.5C18 27.7652 17.8946 28.0196 17.7071 28.2071C17.5196 28.3946 17.2652 28.5 17 28.5C16.7348 28.5 16.4804 28.3946 16.2929 28.2071C16.1054 28.0196 16 27.7652 16 27.5Z" fill="#787878"/>
</svg>

