<svg width="16" height="16" viewBox="0 0 16 16" fill="none" xmlns="http://www.w3.org/2000/svg">
<path d="M16 6.5625C16 7.70215 15.7031 8.82507 15.1415 9.80969C14.9705 10.1095 14.5887 10.2139 14.2889 10.043C13.9891 9.87183 13.8846 9.49011 14.0558 9.19031C14.5099 8.39404 14.75 7.48535 14.75 6.5625C14.75 3.63318 12.3668 1.25 9.43749 1.25C6.50816 1.25 4.12498 3.63318 4.12498 6.5625C4.12498 9.49182 6.50816 11.875 9.43749 11.875C10.3491 11.875 11.2482 11.6404 12.0373 11.1965C12.3383 11.0275 12.7194 11.134 12.8885 11.4349C13.0577 11.7358 12.951 12.1168 12.6501 12.286C11.6742 12.835 10.5633 13.125 9.43749 13.125C7.86009 13.125 6.41099 12.5654 5.27794 11.6345L1.0654 15.8185C0.943578 15.9395 0.784276 16 0.624974 16C0.464329 16 0.303685 15.9385 0.181492 15.8154C-0.0616724 15.5706 -0.0603297 15.1748 0.184544 14.9315L4.39146 10.7533C3.44505 9.61572 2.87498 8.15454 2.87498 6.5625C2.87498 2.94397 5.81895 0 9.43749 0C13.056 0 16 2.94397 16 6.5625ZM8.81249 6.5625C8.81249 6.90771 9.09227 7.1875 9.43749 7.1875C9.7827 7.1875 10.0625 6.90771 10.0625 6.5625C10.0625 6.21729 9.7827 5.9375 9.43749 5.9375C9.09227 5.9375 8.81249 6.21729 8.81249 6.5625ZM6.31248 6.5625C6.31248 6.90771 6.59227 7.1875 6.93748 7.1875C7.2827 7.1875 7.56249 6.90771 7.56249 6.5625C7.56249 6.21729 7.2827 5.9375 6.93748 5.9375C6.59227 5.9375 6.31248 6.21729 6.31248 6.5625ZM11.3125 6.5625C11.3125 6.90771 11.5923 7.1875 11.9375 7.1875C12.2827 7.1875 12.5625 6.90771 12.5625 6.5625C12.5625 6.21729 12.2827 5.9375 11.9375 5.9375C11.5923 5.9375 11.3125 6.21729 11.3125 6.5625Z" fill="#757575"/>
</svg>
