<svg width="8" height="9" viewBox="0 0 8 9" fill="none" xmlns="http://www.w3.org/2000/svg">
<g clip-path="url(#clip0_2539_8082)">
<path d="M4 5.73438C3.74908 5.73438 3.51331 5.63617 3.33612 5.45776L2.12207 4.2359C2.00043 4.11346 2.00104 3.91559 2.12347 3.79395C2.24591 3.6723 2.44379 3.67291 2.56543 3.79535L3.77948 5.01727C3.8385 5.07666 3.91681 5.10938 4 5.10938C4.08319 5.10938 4.1615 5.07666 4.22052 5.01727L5.43457 3.79535C5.55621 3.67291 5.75409 3.6723 5.87653 3.79395C5.99896 3.91559 5.99957 4.11346 5.87793 4.2359L4.66388 5.45776C4.48669 5.63617 4.25092 5.73438 4 5.73438ZM6.0697 7.92352C6.21735 7.83411 6.26453 7.64197 6.17511 7.49438C6.08569 7.34674 5.89349 7.29956 5.74591 7.38898C5.22101 7.70691 4.61725 7.875 4 7.875C2.13904 7.875 0.625 6.36096 0.625 4.5C0.625 2.63904 2.13904 1.125 4 1.125C5.86096 1.125 7.375 2.63904 7.375 4.5C7.375 5.16547 7.17712 5.81317 6.80273 6.37323C6.70679 6.51666 6.74536 6.71075 6.88885 6.8067C7.03229 6.90259 7.22638 6.86407 7.32233 6.72058C7.76562 6.05743 8 5.28955 8 4.5C8 3.43158 7.58392 2.42706 6.82843 1.67157C6.07294 0.916077 5.06842 0.5 4 0.5C2.93158 0.5 1.92706 0.916077 1.17157 1.67157C0.416077 2.42706 0 3.43158 0 4.5C0 5.56842 0.416077 6.57294 1.17157 7.32843C1.92706 8.08392 2.93158 8.5 4 8.5C4.73145 8.5 5.44714 8.30066 6.0697 7.92352Z" fill="white"/>
</g>
<defs>
<clipPath id="clip0_2539_8082">
<rect width="8" height="8" fill="white" transform="translate(0 0.5)"/>
</clipPath>
</defs>
</svg>
