<svg width="19" height="16" viewBox="0 0 19 16" fill="none" xmlns="http://www.w3.org/2000/svg">
<path d="M17.1227 1.26074C14.9898 -0.542996 11.751 -0.378422 9.59835 1.5438C7.44572 -0.378422 4.2069 -0.542996 2.07402 1.26074C0.908832 2.24818 0.224204 3.7491 0.197872 5.38167C0.164957 7.11958 0.875917 8.78507 2.13985 9.9305L7.21531 15.0126C7.87361 15.6709 8.73598 16 9.59835 16C10.4607 16 11.3231 15.6709 11.9814 15.0126L17.0371 9.95025C18.3208 8.78507 19.0317 7.11958 18.9988 5.38167C18.9725 3.7491 18.2879 2.24818 17.1227 1.26074ZM16.1287 9.00231L11.0466 14.0844C10.2501 14.8809 8.94664 14.8809 8.1501 14.0844L3.0483 8.98256C2.04769 8.06752 1.48813 6.7641 1.50788 5.40801C1.53421 4.15066 2.05427 3.00522 2.9298 2.26135C3.6671 1.63597 4.60846 1.33315 5.57616 1.33315C6.85984 1.33315 8.18301 1.87295 9.10463 2.91306C9.35478 3.18955 9.84192 3.18955 10.0921 2.91306C11.7115 1.09616 14.5422 0.799929 16.2669 2.26135C17.1424 3.00522 17.6625 4.15066 17.6888 5.40801C17.7086 6.7641 17.149 8.06753 16.1287 9.00231Z" fill="#EF59A1"/>
<path d="M14.4148 2.34123C14.0702 2.22774 13.7015 2.41193 13.5851 2.75457C13.4685 3.09754 13.6526 3.47073 13.9946 3.58903C14.0573 3.61055 15.5231 4.13515 15.5231 5.59894C15.5231 5.96245 15.8178 6.25723 16.1814 6.25723C16.5449 6.25723 16.8397 5.96245 16.8397 5.59894C16.8397 3.17759 14.5138 2.37434 14.4148 2.34123Z" fill="#EF59A1"/>
</svg>
