<svg width="24" height="32" viewBox="0 0 24 32" fill="none" xmlns="http://www.w3.org/2000/svg">
<path d="M21.0315 4.17032L23.8416 1.36015L22.5113 0.0299135L19.7012 2.84009C17.6284 1.0703 14.9413 0 12.0086 0C5.46731 0 0.145658 5.32171 0.145658 11.863C0.106965 14.3038 1.0684 17.4386 2.47872 20.0626L0.175572 22.3657L1.50587 23.696L3.43959 21.7623C4.12484 22.894 4.91237 24.048 5.79805 25.2155C9.26217 29.647 10.8659 30.9157 12.0086 32.0001C18.1971 26.3886 29.0061 13.4809 21.0315 4.17032ZM2.02701 11.863C2.02701 6.35909 6.50468 1.88135 12.0086 1.88135C14.4225 1.88135 16.6389 2.74282 18.3669 4.17434L15.4655 7.07569C13.1586 5.40788 9.90898 5.61112 7.83285 7.68726C5.75672 9.76333 5.55347 13.013 7.22129 15.3199L3.87575 18.6655C2.77585 16.4472 2.02701 14.1114 2.02701 11.863ZM14.854 14.7084C13.5141 16.0483 11.457 16.2429 9.9076 15.2942L15.4398 9.76201C16.3885 11.3114 16.1939 13.3685 14.854 14.7084ZM9.16315 9.01756C9.94761 8.2331 10.9781 7.84084 12.0086 7.84084C12.7382 7.84084 13.4672 8.03844 14.1095 8.43171L8.5773 13.9639C7.62866 12.4145 7.82326 10.3575 9.16315 9.01756ZM12.0083 29.4263C10.6224 28.063 7.25271 24.5503 4.81122 20.3906L8.55159 16.6502C9.57931 17.3932 10.7937 17.7655 12.0086 17.7655C13.5208 17.7655 15.033 17.1899 16.1843 16.0386C18.2604 13.9626 18.4637 10.7129 16.7959 8.406L19.6972 5.50464C26.6967 13.6187 15.6988 25.8516 12.0083 29.4263Z" fill="white"/>
</svg>
